<svg width="16" height="16" viewBox="0 0 16 16" fill="none" xmlns="http://www.w3.org/2000/svg">
<path fill-rule="evenodd" clip-rule="evenodd" d="M8.00001 2.33334C4.87534 2.33334 2.33334 4.87534 2.33334 8.00001C2.33334 11.1247 4.87534 13.6667 8.00001 13.6667C11.1247 13.6667 13.6667 11.1247 13.6667 8.00001C13.6667 4.87534 11.1247 2.33334 8.00001 2.33334ZM8.00001 14.6667C4.32401 14.6667 1.33334 11.676 1.33334 8.00001C1.33334 4.32401 4.32401 1.33334 8.00001 1.33334C11.676 1.33334 14.6667 4.32401 14.6667 8.00001C14.6667 11.676 11.676 14.6667 8.00001 14.6667Z" fill="#0071A5"/>
<path fill-rule="evenodd" clip-rule="evenodd" d="M7.03907 10.8138C6.91107 10.8138 6.78241 10.7651 6.68507 10.6665C6.49041 10.4705 6.49107 10.1545 6.68641 9.95981L8.65441 7.99981L6.68641 6.04047C6.49107 5.84581 6.49041 5.52914 6.68507 5.33314C6.87974 5.13647 7.19574 5.13781 7.39174 5.33181L9.71574 7.64581C9.80974 7.73981 9.86241 7.86714 9.86241 7.99981C9.86241 8.13314 9.80974 8.26047 9.71574 8.35447L7.39174 10.6678C7.29441 10.7651 7.16641 10.8138 7.03907 10.8138Z" fill="#0071A5"/>
</svg>
