<svg width="32" height="32" viewBox="0 0 32 32" fill="none" xmlns="http://www.w3.org/2000/svg">
<path fill-rule="evenodd" clip-rule="evenodd" d="M27.5553 13.2057H3.79C3.238 13.2057 2.79 12.7577 2.79 12.2057C2.79 11.6537 3.238 11.2057 3.79 11.2057H27.5553C28.1073 11.2057 28.5553 11.6537 28.5553 12.2057C28.5553 12.7577 28.1073 13.2057 27.5553 13.2057Z" fill="#132E64"/>
<path fill-rule="evenodd" clip-rule="evenodd" d="M21.6016 18.4128C21.0496 18.4128 20.5963 17.9648 20.5963 17.4128C20.5963 16.8608 21.0376 16.4128 21.5896 16.4128H21.6016C22.1536 16.4128 22.6016 16.8608 22.6016 17.4128C22.6016 17.9648 22.1536 18.4128 21.6016 18.4128Z" fill="#132E64"/>
<path fill-rule="evenodd" clip-rule="evenodd" d="M15.6849 18.4128C15.1329 18.4128 14.6796 17.9648 14.6796 17.4128C14.6796 16.8608 15.1209 16.4128 15.6729 16.4128H15.6849C16.2369 16.4128 16.6849 16.8608 16.6849 17.4128C16.6849 17.9648 16.2369 18.4128 15.6849 18.4128Z" fill="#132E64"/>
<path fill-rule="evenodd" clip-rule="evenodd" d="M9.75587 18.4128C9.20387 18.4128 8.7492 17.9648 8.7492 17.4128C8.7492 16.8608 9.19187 16.4128 9.74387 16.4128H9.75587C10.3079 16.4128 10.7559 16.8608 10.7559 17.4128C10.7559 17.9648 10.3079 18.4128 9.75587 18.4128Z" fill="#132E64"/>
<path fill-rule="evenodd" clip-rule="evenodd" d="M21.6016 23.5951C21.0496 23.5951 20.5963 23.1471 20.5963 22.5951C20.5963 22.0431 21.0376 21.5951 21.5896 21.5951H21.6016C22.1536 21.5951 22.6016 22.0431 22.6016 22.5951C22.6016 23.1471 22.1536 23.5951 21.6016 23.5951Z" fill="#132E64"/>
<path fill-rule="evenodd" clip-rule="evenodd" d="M15.6849 23.5951C15.1329 23.5951 14.6796 23.1471 14.6796 22.5951C14.6796 22.0431 15.1209 21.5951 15.6729 21.5951H15.6849C16.2369 21.5951 16.6849 22.0431 16.6849 22.5951C16.6849 23.1471 16.2369 23.5951 15.6849 23.5951Z" fill="#132E64"/>
<path fill-rule="evenodd" clip-rule="evenodd" d="M9.75587 23.5951C9.20387 23.5951 8.7492 23.1471 8.7492 22.5951C8.7492 22.0431 9.19187 21.5951 9.74387 21.5951H9.75587C10.3079 21.5951 10.7559 22.0431 10.7559 22.5951C10.7559 23.1471 10.3079 23.5951 9.75587 23.5951Z" fill="#132E64"/>
<path fill-rule="evenodd" clip-rule="evenodd" d="M21.058 7.72133C20.506 7.72133 20.058 7.27333 20.058 6.72133V2.33333C20.058 1.78133 20.506 1.33333 21.058 1.33333C21.61 1.33333 22.058 1.78133 22.058 2.33333V6.72133C22.058 7.27333 21.61 7.72133 21.058 7.72133Z" fill="#132E64"/>
<path fill-rule="evenodd" clip-rule="evenodd" d="M10.2871 7.72133C9.73506 7.72133 9.28706 7.27333 9.28706 6.72133V2.33333C9.28706 1.78133 9.73506 1.33333 10.2871 1.33333C10.8391 1.33333 11.2871 1.78133 11.2871 2.33333V6.72133C11.2871 7.27333 10.8391 7.72133 10.2871 7.72133Z" fill="#132E64"/>
<mask id="mask0_13_1140" style="mask-type:alpha" maskUnits="userSpaceOnUse" x="2" y="3" width="27" height="27">
<path fill-rule="evenodd" clip-rule="evenodd" d="M2.66666 3.4388H28.6667V30H2.66666V3.4388Z" fill="white"/>
</mask>
<g mask="url(#mask0_13_1140)">
<path fill-rule="evenodd" clip-rule="evenodd" d="M10.028 5.4388C6.57066 5.4388 4.66666 7.2828 4.66666 10.6308V22.6961C4.66666 26.1175 6.57066 28.0001 10.028 28.0001H21.3053C24.7627 28.0001 26.6667 26.1521 26.6667 22.7975V10.6308C26.672 8.98413 26.2293 7.70413 25.3507 6.82413C24.4467 5.91746 23.0533 5.4388 21.3173 5.4388H10.028ZM21.3053 30.0001H10.028C5.488 30.0001 2.66666 27.2015 2.66666 22.6961V10.6308C2.66666 6.19346 5.488 3.4388 10.028 3.4388H21.3173C23.596 3.4388 25.48 4.12146 26.7667 5.4108C28.016 6.66546 28.6733 8.46946 28.6667 10.6335V22.7975C28.6667 27.2401 25.8453 30.0001 21.3053 30.0001Z" fill="#132E64"/>
</g>
</svg>
