<svg width="26" height="26" viewBox="0 0 26 26" fill="none" xmlns="http://www.w3.org/2000/svg">
<path fill-rule="evenodd" clip-rule="evenodd" d="M8.57566 3.79166C5.66907 3.79166 3.79166 5.56291 3.79166 8.30375V17.6952C3.79166 20.436 5.66907 22.2083 8.57566 22.2083H17.4243C20.3309 22.2083 22.2083 20.436 22.2083 17.6952V8.30375C22.2083 5.56291 20.3309 3.79166 17.4243 3.79166H8.57566ZM17.4243 23.8333H8.57566C4.74282 23.8333 2.16666 21.3666 2.16666 17.6952V8.30375C2.16666 4.63233 4.74282 2.16666 8.57566 2.16666H17.4243C21.2572 2.16666 23.8333 4.63233 23.8333 8.30375V17.6952C23.8333 21.3666 21.2572 23.8333 17.4243 23.8333V23.8333Z" fill="#0071A5"/>
<path fill-rule="evenodd" clip-rule="evenodd" d="M17.4264 13.8125H8.57339C8.12489 13.8125 7.76089 13.4485 7.76089 13C7.76089 12.5515 8.12489 12.1875 8.57339 12.1875H17.4264C17.8749 12.1875 18.2389 12.5515 18.2389 13C18.2389 13.4485 17.8749 13.8125 17.4264 13.8125" fill="#0071A5"/>
<path fill-rule="evenodd" clip-rule="evenodd" d="M13.3491 17.8728C13.1411 17.8728 12.9321 17.7937 12.7739 17.6334C12.4576 17.3149 12.4586 16.8014 12.7761 16.4851L16.2752 13L12.7761 9.51491C12.4586 9.19858 12.4576 8.68508 12.7739 8.36658C13.0902 8.04808 13.6037 8.04808 13.9222 8.36441L17.9999 12.4247C18.1537 12.5764 18.2393 12.7844 18.2393 13C18.2393 13.2156 18.1537 13.4236 17.9999 13.5752L13.9222 17.6356C13.7641 17.7937 13.5561 17.8728 13.3491 17.8728" fill="#0071A5"/>
</svg>
