<svg width="26" height="26" viewBox="0 0 26 26" fill="none" xmlns="http://www.w3.org/2000/svg">
<path fill-rule="evenodd" clip-rule="evenodd" d="M10.4027 16.3981C10.1947 16.3981 9.98668 16.319 9.82852 16.1598C9.5111 15.8423 9.5111 15.3288 9.82852 15.0114L15.0199 9.82009C15.3373 9.50268 15.8508 9.50268 16.1682 9.82009C16.4856 10.1375 16.4856 10.651 16.1682 10.9684L10.9769 16.1598C10.8187 16.319 10.6107 16.3981 10.4027 16.3981Z" fill="#B73C3C"/>
<path fill-rule="evenodd" clip-rule="evenodd" d="M15.5962 16.4012C15.3882 16.4012 15.1802 16.3221 15.022 16.1629L9.82635 10.9661C9.50893 10.6487 9.50893 10.1352 9.82635 9.81782C10.1448 9.5004 10.6583 9.5004 10.9747 9.81782L16.1704 15.0146C16.4878 15.332 16.4878 15.8455 16.1704 16.1629C16.0122 16.3221 15.8031 16.4012 15.5962 16.4012Z" fill="#B73C3C"/>
<path fill-rule="evenodd" clip-rule="evenodd" d="M8.30374 3.79167C5.56291 3.79167 3.79166 5.66908 3.79166 8.57567V17.4243C3.79166 20.3309 5.56291 22.2083 8.30374 22.2083H17.6941C20.436 22.2083 22.2083 20.3309 22.2083 17.4243V8.57567C22.2083 5.66908 20.436 3.79167 17.6952 3.79167H8.30374ZM17.6941 23.8333H8.30374C4.63232 23.8333 2.16666 21.2572 2.16666 17.4243V8.57567C2.16666 4.74283 4.63232 2.16667 8.30374 2.16667H17.6952C21.3666 2.16667 23.8333 4.74283 23.8333 8.57567V17.4243C23.8333 21.2572 21.3666 23.8333 17.6941 23.8333Z" fill="#B73C3C"/>
</svg>
