<svg width="32" height="32" viewBox="0 0 32 32" fill="none" xmlns="http://www.w3.org/2000/svg">
<path fill-rule="evenodd" clip-rule="evenodd" d="M10.22 4.66667C6.84666 4.66667 4.66666 6.97734 4.66666 10.5547V21.4453C4.66666 25.0227 6.84666 27.3333 10.22 27.3333H21.7773C25.152 27.3333 27.3333 25.0227 27.3333 21.4453V10.5547C27.3333 6.97734 25.152 4.66667 21.7787 4.66667H10.22ZM21.7773 29.3333H10.22C5.70133 29.3333 2.66666 26.1627 2.66666 21.4453V10.5547C2.66666 5.83734 5.70133 2.66667 10.22 2.66667H21.7787C26.2973 2.66667 29.3333 5.83734 29.3333 10.5547V21.4453C29.3333 26.1627 26.2973 29.3333 21.7773 29.3333V29.3333Z" fill="#155F55"/>
<path fill-rule="evenodd" clip-rule="evenodd" d="M14.418 20.164C14.1633 20.164 13.906 20.0667 13.7113 19.8707L10.546 16.7067C10.1553 16.316 10.1553 15.684 10.546 15.2933C10.9367 14.9027 11.5687 14.9027 11.9593 15.2933L14.418 17.7493L20.0393 12.1293C20.43 11.7387 21.062 11.7387 21.4527 12.1293C21.8433 12.52 21.8433 13.152 21.4527 13.5427L15.1247 19.8707C14.93 20.0667 14.674 20.164 14.418 20.164" fill="#155F55"/>
</svg>
