<svg width="26" height="26" viewBox="0 0 26 26" fill="none" xmlns="http://www.w3.org/2000/svg">
<path d="M1 7.76923C1 4.03069 4.03069 1 7.76923 1H18.2308C21.9693 1 25 4.03069 25 7.76923V18.2308C25 21.9693 21.9693 25 18.2308 25H7.76923C4.03069 25 1 21.9693 1 18.2308V7.76923Z" fill="#28A745"/>
<path fill-rule="evenodd" clip-rule="evenodd" d="M18.6225 1H7.37622C3.45708 1 1 3.77492 1 7.70184V18.2982C1 22.2251 3.44541 25 7.37622 25H18.6212C22.5533 25 25 22.2251 25 18.2982V7.70184C25 3.77492 22.5533 1 18.6225 1Z" stroke="white" stroke-width="1.26923" stroke-linecap="round" stroke-linejoin="round"/>
<path d="M8.38098 13L11.4608 16.0785L17.6177 9.92151" stroke="white" stroke-width="1.26923" stroke-linecap="round" stroke-linejoin="round"/>
</svg>
